<?xml version="1.0" encoding="utf-8"?>
<!-- Generator: Adobe Illustrator 23.0.1, SVG Export Plug-In . SVG Version: 6.00 Build 0)  -->
<svg version="1.1" id="Шар_1" xmlns="http://www.w3.org/2000/svg" xmlns:xlink="http://www.w3.org/1999/xlink" x="0px" y="0px"
	 viewBox="0 0 86.9 82.7" style="enable-background:new 0 0 86.9 82.7;" xml:space="preserve">
<style type="text/css">
	.st0{fill:#D3930B;}
	.st1{fill:#08612D;}
	.st2{fill:#FAB513;}
	.st3{fill:#FBBD33;}
</style>
<g>
	<g>
		<path class="st0" d="M16.9,59.5c-0.2,1.9,0.4,3.6,1.6,5.1c-0.1-0.5-0.1-1.1-0.1-1.7c0.3-3.1,2.3-5.9,5.6-8.3
			c4.4-3.2,11-5.4,18.2-5.7c7-0.3,13.1,1.3,17,4c3.1,2.1,4.8,5,4.6,8.2c-0.1,1.1-0.4,2.2-1,3.3c2.5-2.1,4-4.5,4.2-6.9
			c0.3-4.1-2.8-7.8-8.1-10.2c-4.1-1.9-9.6-2.9-15.6-2.7C37,45,31.1,46.6,26.5,48.9C21,51.7,17.3,55.6,16.9,59.5z"/>
		<path class="st0" d="M15.6,25.3c-1.4,1.7-2,3.8-1.8,6.1c0.3-0.6,0.6-1.1,1.1-1.7c2.3-2.8,6.2-4.3,10.9-4.4
			c6.4-0.2,14.3,2,21.5,6.5c7,4.4,11.9,10,13.9,15.2c1.6,4.1,1.4,8.1-1,11c-0.8,1-1.9,1.9-3.2,2.6c3.8-0.4,6.9-1.7,8.7-4
			c3-3.7,2.4-9.5-1.2-15.3c-2.8-4.6-7.4-9.2-13.5-13c-6.3-3.9-13.1-6.3-19.1-7C24.8,20.3,18.6,21.7,15.6,25.3z"/>
		<path class="st1" d="M56.6,39.9L56.6,39.9c-1.8-1.3-4.8-2.5-9.1-3.9V21c1.1,0.5,1.9,1.3,2.5,2.3c0.7,1.2,1.1,2.6,1.3,4.2l0.1,1.5
			h9.8l-0.1-1.7c-0.1-4.7-1.7-8.5-4.7-11.4c-2.3-2.2-5.3-3.7-9-4.4V6.1H37v5.2c-4,0.6-7.3,2.2-9.7,4.9c-3.1,3.3-4.6,7.2-4.6,11.4
			c0,4.7,1.5,8.5,4.4,11.2c2.3,2.1,5.6,3.8,9.9,4.9V61c-1.9-0.6-3.2-1.7-4-3.3c-0.8-1.3-1.2-3.6-1.4-6.8l-0.1-1.5h-9.8V51
			c0,4.6,0.8,8.3,2.3,11c2.5,4.5,6.9,7.2,13,8.2v7.6h10.4v-7.8c3.2-0.6,5.7-1.6,7.7-2.8c4.8-3.1,7.2-8.3,7.2-15.6
			C62.3,46.6,60.4,42.6,56.6,39.9z M52.3,53.6c0,1.7-0.4,3.2-1.1,4.4l0,0c-0.8,1.5-2.1,2.5-3.8,3.2V46.7c0.9,0.4,1.6,0.7,2.1,1.1
			C51.4,49.1,52.3,51,52.3,53.6z M32.7,27.3c0-1.7,0.6-3.3,1.8-4.9c0.6-0.8,1.4-1.4,2.5-1.8v12.7c-0.9-0.4-1.7-0.9-2.4-1.5l0,0
			C33.3,30.7,32.7,29.3,32.7,27.3z"/>
		<path class="st2" d="M67,57.9c0.2-1.9-0.4-3.6-1.6-5.1c0.1,0.5,0.1,1.1,0,1.7c-0.3,3.1-2.3,5.9-5.6,8.3c-4.4,3.2-11,5.4-18.2,5.7
			c-7,0.3-13.1-1.3-17-4c-3.1-2.1-4.8-5-4.5-8.2c0.1-1.1,0.4-2.2,1-3.3c-2.5,2.1-4,4.5-4.2,6.9c-0.3,4.1,2.8,7.8,8.1,10.2
			c4.1,1.9,9.6,2.9,15.6,2.7c6.3-0.2,12.1-1.8,16.7-4.1C63,65.7,66.7,61.8,67,57.9z"/>
		<path class="st3" d="M65.7,56.9c1.4-1.7,2-3.8,1.8-6.1c-0.3,0.6-0.6,1.1-1.1,1.7c-2.3,2.8-6.2,4.3-10.9,4.4
			c-6.4,0.2-14.3-2-21.5-6.5c-7-4.4-11.9-10-13.9-15.2c-1.6-4.1-1.4-8.1,1-11c0.8-1,1.9-1.9,3.2-2.6c-3.8,0.4-6.9,1.7-8.7,4
			c-3,3.7-2.4,9.5,1.2,15.3c2.8,4.6,7.4,9.2,13.5,13c6.3,3.9,13.1,6.3,19.1,7C56.6,61.9,62.8,60.5,65.7,56.9z"/>
	</g>
</g>
</svg>
